# xmcd
#
# Track frame offsets:
#	150
#	11955
#	23780
#	34722
#	46122
#	56982
#	67185
#	78692
#	89607
#	99430
#	108772
#	120675
#	130857
#	144445
#	157715
#	169435
#	180995
#	192330
#	203112
#	214292
#	226642
#	238720
#	248992
#	258177
#	268402
#	279542
#	290040
#	301752
#	313802
#	322230
#	332145
#	345047
#
# Disc length: 4779 seconds
#
# Revision: 1
# Processed by: cddbd v1.5.1PL0 Copyright (c) Steve Scherf et al.
# Submitted via: audiograbber 1.80
#
DISCID=d912a920
DTITLE=stonewall jackson - Waterloo CD 4
DYEAR=1900
DGENRE=
TTITLE0=Road To Recovery 
TTITLE1=Help Stamp Out Loneliness 
TTITLE2=I Can't Help It 
TTITLE3=The Fall That Pride Goes Before 
TTITLE4=A Man Must Hide To Cry 
TTITLE5=Promises And Hearts (Were Made To Break) 
TTITLE6=We Could 
TTITLE7=If Teardrops Were Pennies 
TTITLE8=She'll Still Be Gone 
TTITLE9=You Can Check On Me 
TTITLE10=Almost Hear The Blues 
TTITLE11=Promises And Hearts (Were Made To Break) 
TTITLE12=While The Daisies Grow Free 
TTITLE13=I'll Go Get The Tool Box 
TTITLE14=Only Lonely Me 
TTITLE15=This World Holds Nothing (Since You're Gone) 
TTITLE16=I Wish I Could Fall In Love Today 
TTITLE17=I Can't Dry Your Tears 
TTITLE18=There's No Reason To Be Living 
TTITLE19=You're The Sad In My Songs 
TTITLE20=I Threw Away The Rose 
TTITLE21=It's Such A Pretty World Today 
TTITLE22=Big Busy World 
TTITLE23=The Neon Lights (Don't Care Who They Burn) 
TTITLE24=Gonna Find Me A Bluebird 
TTITLE25=If Heartaches Were Wine (I'd Be Drunk All The Time) 
TTITLE26=Nothing Takes The Place Of Loving You 
TTITLE27=The Past Is All The Future I See 
TTITLE28=Snowball (instrumental) 
TTITLE29=Why I'm Walking (instrumental) 
TTITLE30=My Song 
TTITLE31=While The Daisies Grow Free (w/o chorus) 
EXTD=
EXTT0=
EXTT1=
EXTT2=
EXTT3=
EXTT4=
EXTT5=
EXTT6=
EXTT7=
EXTT8=
EXTT9=
EXTT10=
EXTT11=
EXTT12=
EXTT13=
EXTT14=
EXTT15=
EXTT16=
EXTT17=
EXTT18=
EXTT19=
EXTT20=
EXTT21=
EXTT22=
EXTT23=
EXTT24=
EXTT25=
EXTT26=
EXTT27=
EXTT28=
EXTT29=
EXTT30=
EXTT31=
PLAYORDER=
